<svg xmlns="http://www.w3.org/2000/svg" width="18" height="18" viewBox="0 0 43.08 48.001">
  <g>
    <path d="M36.6,0H6.481A6.488,6.488,0,0,0,0,6.481V43.393a.727.727,0,0,0,.728.727H21.816v3.152a.727.727,0,0,0,1.119.614l3.487-2.229,3.487,2.229A.726.726,0,0,0,30.3,48a.724.724,0,0,0,.728-.727V44.12H36.6a.727.727,0,0,0,.728-.727V7.208h5.026a.728.728,0,0,0,.728-.727A6.489,6.489,0,0,0,36.6,0ZM29.574,45.944l-2.76-1.762a.72.72,0,0,0-.782,0l-2.761,1.762V40.62a6.01,6.01,0,0,0,6.3-.007Zm-3.158-5.89a4.605,4.605,0,1,1,4.606-4.605A4.609,4.609,0,0,1,26.416,40.054Zm9.456,2.613H31.029v-3.3a6.062,6.062,0,1,0-9.213.014v3.283H1.455V6.482a5.026,5.026,0,1,1,10.052,0,.728.728,0,0,0,.728.727H35.871V42.667ZM12.922,5.754a6.481,6.481,0,0,0-2.353-4.3H36.6a5.037,5.037,0,0,1,4.975,4.3Z" fill="aliceblue"/>
    <path d="M11.633,12.321a.729.729,0,0,0,.728.728H24.967a.728.728,0,0,0,0-1.456H12.361A.728.728,0,0,0,11.633,12.321Z" fill="aliceblue"/>
    <path d="M16,17.493a.728.728,0,0,0,.727.727H31.269a.728.728,0,1,0,0-1.456H16.724A.728.728,0,0,0,16,17.493Z" fill="aliceblue"/>
    <path d="M6.057,18.22h6.788a.728.728,0,0,0,0-1.456H6.057a.728.728,0,0,0,0,1.456Z" fill="aliceblue"/>
    <path d="M31.269,21.936H24a.728.728,0,1,0,0,1.456h7.271a.728.728,0,1,0,0-1.456Z" fill="aliceblue"/>
    <path d="M6.057,23.391H20.119a.728.728,0,0,0,0-1.456H6.057a.728.728,0,0,0,0,1.456Z" fill="aliceblue"/>
    <path d="M21.043,26.786H14.3a.728.728,0,0,0,0,1.456h6.743a.728.728,0,0,0,0-1.456Z" fill="aliceblue"/>
    <path d="M6.057,28.241h4.364a.728.728,0,0,0,0-1.456H6.057a.728.728,0,0,0,0,1.456Z" fill="aliceblue"/>
    <path d="M17.163,31.634H6.057a.728.728,0,0,0,0,1.456H17.163a.728.728,0,1,0,0-1.456Z" fill="aliceblue"/>
    <path d="M9.931,36.995a2.56,2.56,0,0,1-3.384,0,.727.727,0,0,0-.979,1.076,4.05,4.05,0,0,0,5.343,0,2.561,2.561,0,0,1,3.383,0,.727.727,0,0,0,.979-1.076A4.045,4.045,0,0,0,9.931,36.995Z" fill="aliceblue"/>
  </g>
</svg>
